<?xml version="1.0" encoding="UTF-8" standalone="no"?><!DOCTYPE svg PUBLIC "-//W3C//DTD SVG 1.1//EN" "http://www.w3.org/Graphics/SVG/1.1/DTD/svg11.dtd"><svg width="100%" height="100%" viewBox="0 0 500 500" version="1.1" xmlns="http://www.w3.org/2000/svg" xmlns:xlink="http://www.w3.org/1999/xlink" xml:space="preserve" style="fill-rule:evenodd;clip-rule:evenodd;stroke-linejoin:round;stroke-miterlimit:1.41421;"><path d="M37.5,250.08c-0.044,-117.282 95.138,-212.536 212.42,-212.58c117.282,-0.044 212.536,95.138 212.58,212.42c0.044,117.282 -95.138,212.536 -212.42,212.58c-117.282,0.044 -212.536,-95.138 -212.58,-212.42Zm293.095,26.175l69.405,93.188l0,-120.253l-140,-187.975l0,120.253l38.541,51.749l-97.082,0l38.541,-51.749l0,-120.253l-140,187.975l0,120.253l70.1,-94.122l0.898,0.934l159.597,0Zm-166.83,-7.524l-56.658,77.294l-4.264,-94.303l133.604,-180.38l-6.396,106.962l-40.253,54.913l-60.176,0l34.143,35.514Zm146.437,-35.514l-40.253,-54.913l-6.396,-106.962l133.604,180.38l-4.264,94.303l-51.143,-69.77l44.405,0l-42.129,-43.038l-33.824,0Zm-9.724,2.601l26.219,35.202l-153.754,0.484l27.042,-36.309l100.493,0.623Zm11.684,0.072l28.21,0.175l32.54,34.81l-35.025,0.11l-25.725,-35.095Zm-123.761,-0.767l-22.411,30.573l-29.936,-30.897l52.347,0.324Z"/></svg>